<svg width="60" height="51" viewBox="0 0 60 51" fill="none" xmlns="http://www.w3.org/2000/svg">
<mask id="path-1-inside-1_2330_770" fill="white">
<path fill-rule="evenodd" clip-rule="evenodd" d="M7.5 29.2595V36.1345C7.5 44.0736 13.9359 50.5095 21.875 50.5095H38.125C46.0641 50.5095 52.5 44.0736 52.5 36.1345V29.2595H51.25V36.1345C51.25 43.3833 45.3737 49.2595 38.125 49.2595H21.875C14.6263 49.2595 8.75 43.3833 8.75 36.1345V29.2595H7.5Z"/>
</mask>
<path d="M7.5 29.2595V28.0095H6.25V29.2595H7.5ZM52.5 29.2595H53.75V28.0095H52.5V29.2595ZM51.25 29.2595V28.0095H50V29.2595H51.25ZM8.75 29.2595H10V28.0095H8.75V29.2595ZM6.25 29.2595V36.1345H8.75V29.2595H6.25ZM6.25 36.1345C6.25 44.764 13.2455 51.7595 21.875 51.7595V49.2595C14.6263 49.2595 8.75 43.3833 8.75 36.1345H6.25ZM21.875 51.7595H38.125V49.2595H21.875V51.7595ZM38.125 51.7595C46.7545 51.7595 53.75 44.764 53.75 36.1345H51.25C51.25 43.3833 45.3737 49.2595 38.125 49.2595V51.7595ZM53.75 36.1345V29.2595H51.25V36.1345H53.75ZM52.5 28.0095H51.25V30.5095H52.5V28.0095ZM52.5 36.1345V29.2595H50V36.1345H52.5ZM38.125 50.5095C46.0641 50.5095 52.5 44.0736 52.5 36.1345H50C50 42.6929 44.6834 48.0095 38.125 48.0095V50.5095ZM21.875 50.5095H38.125V48.0095H21.875V50.5095ZM7.5 36.1345C7.5 44.0736 13.9359 50.5095 21.875 50.5095V48.0095C15.3166 48.0095 10 42.6929 10 36.1345H7.5ZM7.5 29.2595V36.1345H10V29.2595H7.5ZM8.75 28.0095H7.5V30.5095H8.75V28.0095Z" fill="#453283" mask="url(#path-1-inside-1_2330_770)"/>
<rect y="49.2925" width="60" height="1.25" rx="0.625" fill="#453283"/>
<rect x="3.75" y="29.2595" width="52.5" height="1.25" rx="0.625" fill="#453283"/>
<path d="M25 29.875H35V41.75C35 42.7855 34.1605 43.625 33.125 43.625H26.875C25.8395 43.625 25 42.7855 25 41.75V29.875Z" fill="#FCE600" stroke="#453283" stroke-width="1.25"/>
<path d="M8.125 31.1346C8.125 30.0324 8.125 17.1351 8.125 16.288C8.125 12.2812 8.125 10.7765 8.125 8.45578C8.125 3.75844 11.6526 1.125 14.6875 1.125C17.7224 1.125 21.25 2.77461 21.25 8.78351" stroke="#453283" stroke-width="1.25" stroke-linecap="round"/>
<path d="M17.5 13C17.5 10.9289 19.1789 9.25 21.25 9.25C23.3211 9.25 25 10.9289 25 13V13.625H17.5V13Z" stroke="#453283" stroke-width="1.25"/>
</svg>
