<svg width="60" height="52" viewBox="0 0 60 52" fill="none" xmlns="http://www.w3.org/2000/svg">
<path d="M43.125 23.75C43.125 25.1307 42.0057 26.25 40.625 26.25H38.125C36.7443 26.25 35.625 25.1307 35.625 23.75V20H43.125V23.75Z" fill="#FCE600"/>
<path fill-rule="evenodd" clip-rule="evenodd" d="M13.75 22.0625V25.5C13.75 25.5428 13.7457 25.5846 13.7375 25.625H28.75H30H35.6001C35.226 25.188 35 24.6204 35 24V19H43.75V24C43.75 24.6204 43.524 25.188 43.1499 25.625H48H48.125C49.5057 25.625 50.625 26.7443 50.625 28.125V35.625C50.625 35.8984 50.5811 36.1616 50.5 36.4078V50H59.375C59.7202 50 60 50.2798 60 50.625C60 50.9702 59.7202 51.25 59.375 51.25H50.5H30H28.75H8H0.625001C0.279823 51.25 0 50.9702 0 50.625C0 50.2798 0.279822 50 0.625 50H8V28.125C8 26.7443 9.11929 25.625 10.5 25.625H10.625H12.5125C12.5043 25.5846 12.5 25.5428 12.5 25.5V22.0625C12.5 20.164 14.039 18.625 15.9375 18.625C17.836 18.625 19.375 20.164 19.375 22.0625V23.0328C19.375 23.378 19.0952 23.6578 18.75 23.6578C18.4048 23.6578 18.125 23.378 18.125 23.0328V22.0625C18.125 20.8544 17.1456 19.875 15.9375 19.875C14.7294 19.875 13.75 20.8544 13.75 22.0625ZM9.375 50H28.75V38.125H10.625C10.1696 38.125 9.74272 38.0033 9.375 37.7905V50ZM30 50H49.375V37.7905C49.0073 38.0033 48.5804 38.125 48.125 38.125H30V50ZM49.375 28.125V35.625C49.375 36.3154 48.8154 36.875 48.125 36.875H30V26.875H48.125C48.8154 26.875 49.375 27.4346 49.375 28.125ZM10.625 26.875H28.75V36.875H10.625C9.93464 36.875 9.375 36.3154 9.375 35.625V28.125C9.375 27.4346 9.93464 26.875 10.625 26.875ZM26.25 30C26.25 29.6548 25.9702 29.375 25.625 29.375C25.2798 29.375 25 29.6548 25 30V30.3125V34.375V34.6875C25 35.0327 25.2798 35.3125 25.625 35.3125C25.9702 35.3125 26.25 35.0327 26.25 34.6875V34.375V30.3125V30ZM36.25 24V20.25H42.5V24C42.5 24.6904 41.9404 25.25 41.25 25.25H37.5C36.8096 25.25 36.25 24.6904 36.25 24ZM33.125 29.375C33.4702 29.375 33.75 29.6548 33.75 30V30.3125V34.375V34.6875C33.75 35.0327 33.4702 35.3125 33.125 35.3125C32.7798 35.3125 32.5 35.0327 32.5 34.6875V34.375V30.3125V30C32.5 29.6548 32.7798 29.375 33.125 29.375Z" fill="#453283"/>
<path d="M25.625 3.75C25.9702 3.75 26.25 4.02982 26.25 4.375V8.75C26.25 9.09518 25.9702 9.375 25.625 9.375C25.2798 9.375 25 9.09518 25 8.75V4.375C25 4.02982 25.2798 3.75 25.625 3.75Z" fill="#453283"/>
<path d="M33.125 3.75C33.4702 3.75 33.75 4.02982 33.75 4.375V8.75C33.75 9.09518 33.4702 9.375 33.125 9.375C32.7798 9.375 32.5 9.09518 32.5 8.75V4.375C32.5 4.02982 32.7798 3.75 33.125 3.75Z" fill="#453283"/>
<path d="M30 0V12.5H28.75L28.75 0L30 0Z" fill="#453283"/>
<path d="M8.625 2.5C8.625 1.46447 9.46447 0.625 10.5 0.625H48C49.0355 0.625 49.875 1.46447 49.875 2.5V10C49.875 11.0355 49.0355 11.875 48 11.875H10.5C9.46447 11.875 8.625 11.0355 8.625 10V2.5Z" stroke="#453283" stroke-width="1.25"/>
</svg>
